<svg data-v-d3f97b9e="" xmlns="http://www.w3.org/2000/svg" viewBox="0 0 455.02703692461995 188"><!----><!----><!----><g data-v-d3f97b9e="" id="6476121f-45b8-4388-b1a5-ee95972049af" fill="#FFFFFF" transform="matrix(6.486486486486487,0,0,6.486486486486487,-3.1783792843689866,103)"><path d="M4.54 8.86L6.43 8.86L6.43 1.44L4.54 1.44L4.54 4.02L4.54 4.02Q3.85 3.33 2.90 3.33L2.90 3.33L2.90 3.33Q2.16 3.33 1.61 3.70L1.61 3.70L1.61 3.70Q1.06 4.07 0.78 4.71L0.78 4.71L0.78 4.71Q0.49 5.35 0.49 6.17L0.49 6.17L0.49 6.17Q0.49 7.00 0.78 7.64L0.78 7.64L0.78 7.64Q1.06 8.27 1.61 8.64L1.61 8.64L1.61 8.64Q2.16 9.00 2.90 9.00L2.90 9.00L2.90 9.00Q3.37 9.00 3.79 8.81L3.79 8.81L3.79 8.81Q4.21 8.61 4.54 8.27L4.54 8.27L4.54 8.86ZM4.54 5.35L4.54 5.35L4.54 7.00L4.54 7.00Q4.12 7.53 3.46 7.53L3.46 7.53L3.46 7.53Q2.95 7.53 2.67 7.15L2.67 7.15L2.67 7.15Q2.38 6.78 2.38 6.17L2.38 6.17L2.38 6.17Q2.38 5.57 2.67 5.19L2.67 5.19L2.67 5.19Q2.95 4.80 3.46 4.80L3.46 4.80L3.46 4.80Q4.10 4.80 4.54 5.35ZM7.55 6.17L7.55 6.17L7.55 6.17Q7.55 7.06 7.95 7.69L7.95 7.69L7.95 7.69Q8.34 8.33 9.02 8.67L9.02 8.67L9.02 8.67Q9.70 9.00 10.51 9.00L10.51 9.00L10.51 9.00Q11.23 9.00 11.82 8.78L11.82 8.78L11.82 8.78Q12.40 8.55 12.78 8.09L12.78 8.09L11.94 6.79L11.94 6.79Q11.72 7.14 11.41 7.37L11.41 7.37L11.41 7.37Q11.10 7.60 10.65 7.60L10.65 7.60L10.65 7.60Q10.33 7.60 10.09 7.48L10.09 7.48L10.09 7.48Q9.84 7.35 9.67 7.14L9.67 7.14L13.06 5.89L13.06 5.89Q13.06 5.15 12.73 4.57L12.73 4.57L12.73 4.57Q12.40 3.99 11.79 3.66L11.79 3.66L11.79 3.66Q11.19 3.33 10.37 3.33L10.37 3.33L10.37 3.33Q9.56 3.33 8.92 3.68L8.92 3.68L8.92 3.68Q8.27 4.02 7.91 4.66L7.91 4.66L7.91 4.66Q7.55 5.29 7.55 6.17ZM11.44 5.14L11.44 5.14L9.30 5.95L9.30 5.95Q9.32 5.47 9.58 5.08L9.58 5.08L9.58 5.08Q9.84 4.68 10.42 4.68L10.42 4.68L10.42 4.68Q10.77 4.68 11.02 4.80L11.02 4.80L11.02 4.80Q11.28 4.93 11.44 5.14ZM14.45 8.86L16.34 8.86L16.34 4.87L17.54 4.87L17.54 3.47L16.37 3.47L16.37 3.47Q16.42 3.09 16.59 2.97L16.59 2.97L16.59 2.97Q16.76 2.84 17.00 2.84L17.00 2.84L17.00 2.84Q17.19 2.84 17.49 3.00L17.49 3.00L17.49 3.00Q17.79 3.16 18.21 3.57L18.21 3.57L18.77 2.17L18.77 2.17Q18.42 1.85 18.14 1.65L18.14 1.65L18.14 1.65Q17.85 1.46 17.52 1.38L17.52 1.38L17.52 1.38Q17.19 1.30 16.72 1.30L16.72 1.30L16.72 1.30Q16.18 1.30 15.66 1.55L15.66 1.55L15.66 1.55Q15.13 1.81 14.79 2.28L14.79 2.28L14.79 2.28Q14.45 2.74 14.45 3.43L14.45 3.43L14.45 3.47L13.83 3.47L13.83 4.87L14.45 4.87L14.45 8.86ZM19.17 3.47L19.17 8.86L21.06 8.86L21.06 3.47L19.17 3.47ZM18.77 1.34L20.10 2.67L21.45 1.34L20.10 0L18.77 1.34ZM22.57 7.78L24.04 9.25L25.52 7.78L24.04 6.30L22.57 7.78ZM26.64 3.47L26.64 8.86L28.53 8.86L28.53 5.42L28.53 5.42Q28.70 5.15 28.95 4.98L28.95 4.98L28.95 4.98Q29.19 4.80 29.47 4.80L29.47 4.80L29.47 4.80Q29.76 4.80 29.88 5.05L29.88 5.05L29.88 5.05Q29.99 5.29 29.99 5.89L29.99 5.89L29.99 8.86L31.88 8.86L31.88 8.86Q31.88 8.01 31.88 7.14L31.88 7.14L31.88 7.14Q31.88 6.27 31.88 5.42L31.88 5.42L31.88 5.42Q32.05 5.15 32.29 4.98L32.29 4.98L32.29 4.98Q32.54 4.80 32.82 4.80L32.82 4.80L32.82 4.80Q33.11 4.80 33.22 5.05L33.22 5.05L33.22 5.05Q33.33 5.29 33.33 5.89L33.33 5.89L33.33 8.86L35.22 8.86L35.22 5.47L35.22 5.47Q35.22 4.45 34.83 3.89L34.83 3.89L34.83 3.89Q34.43 3.33 33.52 3.33L33.52 3.33L33.52 3.33Q33.08 3.33 32.59 3.61L32.59 3.61L32.59 3.61Q32.10 3.89 31.72 4.38L31.72 4.38L31.72 4.38Q31.56 3.88 31.18 3.61L31.18 3.61L31.18 3.61Q30.80 3.33 30.17 3.33L30.17 3.33L30.17 3.33Q29.72 3.33 29.29 3.62L29.29 3.62L29.29 3.62Q28.85 3.91 28.53 4.40L28.53 4.40L28.53 3.47L26.64 3.47ZM38.09 6.17L38.09 6.17L38.09 6.17Q38.09 5.67 38.35 5.31L38.35 5.31L38.35 5.31Q38.60 4.94 39.10 4.94L39.10 4.94L39.10 4.94Q39.61 4.94 39.86 5.31L39.86 5.31L39.86 5.31Q40.11 5.67 40.11 6.17L40.11 6.17L40.11 6.17Q40.11 6.68 39.86 7.04L39.86 7.04L39.86 7.04Q39.61 7.39 39.10 7.39L39.10 7.39L39.10 7.39Q38.60 7.39 38.35 7.04L38.35 7.04L38.35 7.04Q38.09 6.68 38.09 6.17ZM36.27 6.17L36.27 6.17L36.27 6.17Q36.27 7.00 36.64 7.64L36.64 7.64L36.64 7.64Q37.00 8.27 37.64 8.64L37.64 8.64L37.64 8.64Q38.28 9.00 39.10 9.00L39.10 9.00L39.10 9.00Q39.93 9.00 40.56 8.67L40.56 8.67L40.56 8.67Q41.20 8.33 41.57 7.69L41.57 7.69L41.57 7.69Q41.93 7.06 41.93 6.17L41.93 6.17L41.93 6.17Q41.93 5.29 41.57 4.66L41.57 4.66L41.57 4.66Q41.20 4.02 40.56 3.68L40.56 3.68L40.56 3.68Q39.93 3.33 39.10 3.33L39.10 3.33L39.10 3.33Q38.28 3.33 37.64 3.68L37.64 3.68L37.64 3.68Q37.00 4.02 36.64 4.66L36.64 4.66L36.64 4.66Q36.27 5.29 36.27 6.17ZM42.98 3.47L42.98 8.86L44.87 8.86L44.87 5.50L44.87 5.50Q45.07 5.21 45.35 5.01L45.35 5.01L45.35 5.01Q45.64 4.80 45.95 4.80L45.95 4.80L45.95 4.80Q46.24 4.80 46.42 5.05L46.42 5.05L46.42 5.05Q46.61 5.29 46.61 5.89L46.61 5.89L46.61 8.86L48.50 8.86L48.50 5.47L48.50 5.47Q48.50 4.45 48.03 3.89L48.03 3.89L48.03 3.89Q47.56 3.33 46.65 3.33L46.65 3.33L46.65 3.33Q46.17 3.33 45.70 3.64L45.70 3.64L45.70 3.64Q45.22 3.95 44.87 4.48L44.87 4.48L44.87 3.47L42.98 3.47ZM52.05 7.29L52.05 7.29L52.05 7.29Q52.05 7.52 51.87 7.60L51.87 7.60L51.87 7.60Q51.69 7.67 51.39 7.67L51.39 7.67L51.39 7.67Q51.21 7.67 50.76 7.50L50.76 7.50L50.76 7.50Q50.32 7.34 49.90 6.94L49.90 6.94L49.34 8.20L49.34 8.20Q49.87 8.69 50.42 8.88L50.42 8.88L50.42 8.88Q50.97 9.07 51.67 9.07L51.67 9.07L51.67 9.07Q52.22 9.07 52.74 8.88L52.74 8.88L52.74 8.88Q53.26 8.68 53.60 8.26L53.60 8.26L53.60 8.26Q53.94 7.84 53.94 7.15L53.94 7.15L53.94 7.15Q53.94 6.72 53.70 6.43L53.70 6.43L53.70 6.43Q53.47 6.15 53.12 5.96L53.12 5.96L53.12 5.96Q52.77 5.77 52.42 5.62L52.42 5.62L52.42 5.62Q52.07 5.47 51.83 5.33L51.83 5.33L51.83 5.33Q51.59 5.18 51.59 4.97L51.59 4.97L51.59 4.97Q51.59 4.66 51.98 4.66L51.98 4.66L51.98 4.66Q52.16 4.66 52.47 4.82L52.47 4.82L52.47 4.82Q52.77 4.98 53.19 5.39L53.19 5.39L53.75 4.13L53.75 4.13Q53.23 3.64 52.72 3.45L52.72 3.45L52.72 3.45Q52.22 3.26 51.83 3.26L51.83 3.26L51.83 3.26Q51.30 3.26 50.81 3.41L50.81 3.41L50.81 3.41Q50.32 3.56 50.01 3.92L50.01 3.92L50.01 3.92Q49.70 4.28 49.70 4.97L49.70 4.97L49.70 4.97Q49.70 5.47 49.94 5.80L49.94 5.80L49.94 5.80Q50.18 6.12 50.53 6.31L50.53 6.31L50.53 6.31Q50.88 6.51 51.23 6.66L51.23 6.66L51.23 6.66Q51.58 6.80 51.81 6.94L51.81 6.94L51.81 6.94Q52.05 7.08 52.05 7.29ZM54.57 3.47L54.57 4.87L55.55 4.87L55.55 8.86L57.44 8.86L57.44 4.87L58.56 4.87L58.56 3.47L57.44 3.47L57.44 1.72L55.55 2.56L55.55 3.47L54.57 3.47ZM59.40 6.17L59.40 6.17L59.40 6.17Q59.40 7.06 59.80 7.69L59.80 7.69L59.80 7.69Q60.20 8.33 60.88 8.67L60.88 8.67L60.88 8.67Q61.56 9.00 62.37 9.00L62.37 9.00L62.37 9.00Q63.08 9.00 63.67 8.78L63.67 8.78L63.67 8.78Q64.26 8.55 64.64 8.09L64.64 8.09L63.80 6.79L63.80 6.79Q63.57 7.14 63.27 7.37L63.27 7.37L63.27 7.37Q62.96 7.60 62.51 7.60L62.51 7.60L62.51 7.60Q62.19 7.60 61.94 7.48L61.94 7.48L61.94 7.48Q61.70 7.35 61.53 7.14L61.53 7.14L64.92 5.89L64.92 5.89Q64.92 5.15 64.59 4.57L64.59 4.57L64.59 4.57Q64.26 3.99 63.65 3.66L63.65 3.66L63.65 3.66Q63.04 3.33 62.23 3.33L62.23 3.33L62.23 3.33Q61.42 3.33 60.77 3.68L60.77 3.68L60.77 3.68Q60.13 4.02 59.77 4.66L59.77 4.66L59.77 4.66Q59.40 5.29 59.40 6.17ZM63.29 5.14L63.29 5.14L61.15 5.95L61.15 5.95Q61.18 5.47 61.44 5.08L61.44 5.08L61.44 5.08Q61.70 4.68 62.27 4.68L62.27 4.68L62.27 4.68Q62.62 4.68 62.88 4.80L62.88 4.80L62.88 4.80Q63.14 4.93 63.29 5.14ZM69.59 5.75L70.64 4.35L70.64 4.35Q70.50 4.17 70.32 3.95L70.32 3.95L70.32 3.95Q70.14 3.72 69.87 3.56L69.87 3.56L69.87 3.56Q69.61 3.40 69.22 3.40L69.22 3.40L69.22 3.40Q68.82 3.40 68.42 3.71L68.42 3.71L68.42 3.71Q68.01 4.02 67.70 4.52L67.70 4.52L67.58 3.47L65.97 3.47L65.97 8.86L67.86 8.86L67.86 5.50L67.86 5.50Q68.04 5.32 68.25 5.20L68.25 5.20L68.25 5.20Q68.46 5.08 68.66 5.08L68.66 5.08L68.66 5.08Q69.05 5.08 69.22 5.27L69.22 5.27L69.22 5.27Q69.38 5.46 69.59 5.75L69.59 5.75Z"></path></g><!----><g data-v-d3f97b9e="" id="ad8076b5-3894-4172-a5fd-7bf2a312865e" transform="matrix(1.3038376206837972,0,0,1.3038376206837972,163.18166068193497,-19.70522941245406)" stroke="none" fill="#D6CA82"><path d="M82.531 32.202C76.513 21.503 71.498 15.486 49.32 15.486c-37.111 0-39.448 40.454-33.382 49.589 2.856 4.3 9.251 6.897 17.024 8.252l-5.476 7.621a1.5 1.5 0 0 0 2.436 1.75l6.372-8.868c3.929.491 8.112.701 12.308.686v8.497a1.5 1.5 0 0 0 3 0V74.47c4.183-.12 8.312-.456 12.162-.955l8.994 9.347a1.497 1.497 0 0 0 2.121.041 1.5 1.5 0 0 0 .041-2.121l-7.504-7.798c6.913-1.14 12.508-2.813 15.116-4.676 5.508-3.933 5.411-26.486-.001-36.106zM35.51 62.627c-4.735 0-8.573-2.396-8.573-5.35s3.838-5.349 8.573-5.349 8.573 2.395 8.573 5.349-3.838 5.35-8.573 5.35zm32.43 0c-4.735 0-8.573-2.396-8.573-5.35s3.838-5.349 8.573-5.349 8.573 2.395 8.573 5.349-3.838 5.35-8.573 5.35z"></path></g><!----><g data-v-d3f97b9e="" id="22fe93ab-a663-4d24-9acb-dad91636e843" fill="#FFFFFF" transform="matrix(1.0809612838687235,0,0,1.0809612838687235,57.31142670379086,198.8968834883014)"><path d="M7.20 16.21L7.20 16.21L7.20 16.21Q7.17 16.23 7.14 16.23L7.14 16.23L7.14 16.23Q7.11 16.23 7.03 16.23L7.03 16.23L7.03 16.23Q6.83 16.23 6.57 16.16L6.57 16.16L6.57 16.16Q6.31 16.10 6.07 16.01L6.07 16.01L6.07 16.01Q5.82 15.92 5.65 15.81L5.65 15.81L5.65 15.81Q5.47 15.69 5.43 15.61L5.43 15.61L5.43 15.61Q5.42 15.41 5.42 15.20L5.42 15.20L5.42 15.20Q5.42 14.99 5.42 14.80L5.42 14.80L5.42 14.80Q5.42 13.23 5.65 11.52L5.65 11.52L5.65 11.52Q5.88 9.81 6.41 7.83L6.41 7.83L6.41 7.83Q6.47 7.63 6.53 7.33L6.53 7.33L6.53 7.33Q6.59 7.03 6.66 6.68L6.66 6.68L6.66 6.68Q6.33 6.94 5.87 7.53L5.87 7.53L5.87 7.53Q5.40 8.11 4.89 8.90L4.89 8.90L4.89 8.90Q4.38 9.69 3.87 10.63L3.87 10.63L3.87 10.63Q3.36 11.58 2.94 12.55L2.94 12.55L2.94 12.55Q2.52 13.52 2.22 14.48L2.22 14.48L2.22 14.48Q1.92 15.43 1.85 16.24L1.85 16.24L1.85 16.24Q1.18 16.04 0.92 15.85L0.92 15.85L0.92 15.85Q0.66 15.65 0.66 15.37L0.66 15.37L0.66 15.37Q0.66 15.12 0.81 14.66L0.81 14.66L0.81 14.66Q0.97 14.20 1.25 13.57L1.25 13.57L1.25 13.57Q1.53 12.94 1.93 12.16L1.93 12.16L1.93 12.16Q2.34 11.38 2.83 10.49L2.83 10.49L2.83 10.49Q3.39 9.46 3.93 8.57L3.93 8.57L3.93 8.57Q4.47 7.67 4.98 6.94L4.98 6.94L4.98 6.94Q5.50 6.22 6.00 5.68L6.00 5.68L6.00 5.68Q6.50 5.15 6.99 4.87L6.99 4.87L6.99 4.87Q7.18 4.87 7.51 4.97L7.51 4.97L7.51 4.97Q7.84 5.07 8.15 5.21L8.15 5.21L8.15 5.21Q8.47 5.35 8.71 5.49L8.71 5.49L8.71 5.49Q8.96 5.64 8.99 5.74L8.99 5.74L8.99 5.74Q8.79 6.13 8.53 6.92L8.53 6.92L8.53 6.92Q8.26 7.70 7.99 8.69L7.99 8.69L7.99 8.69Q7.71 9.69 7.47 10.80L7.47 10.80L7.47 10.80Q7.22 11.91 7.08 12.94L7.08 12.94L7.08 12.94Q7.41 12.17 7.83 11.33L7.83 11.33L7.83 11.33Q8.26 10.50 8.74 9.68L8.74 9.68L8.74 9.68Q9.21 8.86 9.71 8.09L9.71 8.09L9.71 8.09Q10.21 7.32 10.68 6.69L10.68 6.69L10.68 6.69Q11.16 6.05 11.57 5.57L11.57 5.57L11.57 5.57Q11.98 5.10 12.31 4.87L12.31 4.87L12.31 4.87Q12.50 4.87 12.83 4.97L12.83 4.97L12.83 4.97Q13.16 5.07 13.47 5.21L13.47 5.21L13.47 5.21Q13.79 5.35 14.04 5.49L14.04 5.49L14.04 5.49Q14.28 5.64 14.31 5.74L14.31 5.74L14.31 5.74Q13.86 6.54 13.52 7.69L13.52 7.69L13.52 7.69Q13.19 8.83 12.96 10.09L12.96 10.09L12.96 10.09Q12.73 11.35 12.61 12.59L12.61 12.59L12.61 12.59Q12.49 13.83 12.49 14.81L12.49 14.81L12.49 14.81Q12.49 15.13 12.49 15.48L12.49 15.48L12.49 15.48Q12.49 15.83 12.52 16.21L12.52 16.21L12.52 16.21Q12.32 16.21 12.05 16.16L12.05 16.16L12.05 16.16Q11.77 16.11 11.52 16.03L11.52 16.03L11.52 16.03Q11.26 15.95 11.05 15.84L11.05 15.84L11.05 15.84Q10.84 15.74 10.75 15.61L10.75 15.61L10.75 15.61Q10.74 15.41 10.74 15.20L10.74 15.20L10.74 15.20Q10.74 14.99 10.74 14.80L10.74 14.80L10.74 14.80Q10.74 13.23 10.97 11.52L10.97 11.52L10.97 11.52Q11.20 9.81 11.73 7.83L11.73 7.83L11.73 7.83Q11.79 7.63 11.86 7.29L11.86 7.29L11.86 7.29Q11.93 6.96 12.00 6.59L12.00 6.59L12.00 6.59Q11.61 6.79 11.11 7.34L11.11 7.34L11.11 7.34Q10.61 7.90 10.10 8.69L10.10 8.69L10.10 8.69Q9.59 9.48 9.09 10.44L9.09 10.44L9.09 10.44Q8.60 11.41 8.20 12.41L8.20 12.41L8.20 12.41Q7.80 13.41 7.53 14.40L7.53 14.40L7.53 14.40Q7.25 15.39 7.20 16.21ZM27.89 4.98L27.89 4.98L27.89 4.98Q28.15 5.10 28.43 5.27L28.43 5.27L28.43 5.27Q28.71 5.45 28.95 5.63L28.95 5.63L28.95 5.63Q29.19 5.81 29.35 5.98L29.35 5.98L29.35 5.98Q29.51 6.16 29.53 6.27L29.53 6.27L29.53 6.27Q29.29 6.22 29.05 6.20L29.05 6.20L29.05 6.20Q28.81 6.17 28.62 6.17L28.62 6.17L28.62 6.17Q27.99 6.17 27.36 6.48L27.36 6.48L27.36 6.48Q26.74 6.79 26.18 7.32L26.18 7.32L26.18 7.32Q25.62 7.85 25.14 8.57L25.14 8.57L25.14 8.57Q24.67 9.28 24.33 10.09L24.33 10.09L24.33 10.09Q23.98 10.91 23.79 11.77L23.79 11.77L23.79 11.77Q23.59 12.64 23.59 13.48L23.59 13.48L23.59 13.48Q23.59 14.57 23.95 15.11L23.95 15.11L23.95 15.11Q24.32 15.64 25.02 15.64L25.02 15.64L25.02 15.64Q25.35 15.64 25.75 15.51L25.75 15.51L25.75 15.51Q26.14 15.37 26.54 15.13L26.54 15.13L26.54 15.13Q26.95 14.90 27.34 14.56L27.34 14.56L27.34 14.56Q27.73 14.22 28.07 13.82L28.07 13.82L28.07 13.82Q28.56 13.23 28.95 12.48L28.95 12.48L28.95 12.48Q29.34 11.73 29.62 10.89L29.62 10.89L29.62 10.89Q29.89 10.05 30.04 9.16L30.04 9.16L30.04 9.16Q30.18 8.27 30.18 7.42L30.18 7.42L30.18 7.42Q30.18 7.08 30.17 6.85L30.17 6.85L30.17 6.85Q30.16 6.62 30.14 6.46L30.14 6.46L30.14 6.46Q30.11 6.30 30.10 6.20L30.10 6.20L30.10 6.20Q30.09 6.10 30.07 6.03L30.07 6.03L30.07 6.03Q30.24 6.12 30.44 6.24L30.44 6.24L30.44 6.24Q30.65 6.36 30.82 6.59L30.82 6.59L30.82 6.59Q31.00 6.82 31.12 7.20L31.12 7.20L31.12 7.20Q31.23 7.57 31.23 8.18L31.23 8.18L31.23 8.18Q31.23 9.16 31.00 10.10L31.00 10.10L31.00 10.10Q30.77 11.05 30.36 11.90L30.36 11.90L30.36 11.90Q29.95 12.75 29.39 13.50L29.39 13.50L29.39 13.50Q28.83 14.24 28.18 14.80L28.18 14.80L28.18 14.80Q27.34 15.54 26.39 15.95L26.39 15.95L26.39 15.95Q25.44 16.35 24.56 16.35L24.56 16.35L24.56 16.35Q23.27 16.35 22.59 15.53L22.59 15.53L22.59 15.53Q21.91 14.71 21.91 13.12L21.91 13.12L21.91 13.12Q21.91 12.26 22.10 11.31L22.10 11.31L22.10 11.31Q22.29 10.36 22.63 9.44L22.63 9.44L22.63 9.44Q22.97 8.51 23.45 7.68L23.45 7.68L23.45 7.68Q23.93 6.85 24.49 6.21L24.49 6.21L24.49 6.21Q25.06 5.57 25.71 5.19L25.71 5.19L25.71 5.19Q26.36 4.82 27.05 4.82L27.05 4.82L27.05 4.82Q27.27 4.82 27.47 4.85L27.47 4.85L27.47 4.85Q27.66 4.89 27.89 4.98ZM39.80 16.24L39.80 16.24L39.80 16.24Q39.00 16.00 38.72 15.79L38.72 15.79L38.72 15.79Q38.44 15.57 38.44 15.19L38.44 15.19L38.44 15.19Q38.44 14.77 38.64 14.01L38.64 14.01L38.64 14.01Q38.84 13.24 39.15 12.31L39.15 12.31L39.15 12.31Q39.47 11.37 39.87 10.35L39.87 10.35L39.87 10.35Q40.28 9.32 40.70 8.39L40.70 8.39L40.70 8.39Q41.12 7.45 41.52 6.67L41.52 6.67L41.52 6.67Q41.92 5.89 42.22 5.46L42.22 5.46L42.13 4.87L42.13 4.87Q42.32 4.87 42.67 4.97L42.67 4.97L42.67 4.97Q43.02 5.07 43.38 5.21L43.38 5.21L43.38 5.21Q43.74 5.35 44.01 5.49L44.01 5.49L44.01 5.49Q44.28 5.64 44.31 5.74L44.31 5.74L44.31 5.74Q44.24 6.08 44.20 6.76L44.20 6.76L44.20 6.76Q44.16 7.43 44.16 8.20L44.16 8.20L44.16 8.20Q44.16 9.73 44.28 11.19L44.28 11.19L44.28 11.19Q44.39 12.66 44.83 14.17L44.83 14.17L44.83 14.17Q45.05 13.05 45.31 11.94L45.31 11.94L45.31 11.94Q45.57 10.82 45.85 9.81L45.85 9.81L45.85 9.81Q46.13 8.79 46.41 7.92L46.41 7.92L46.41 7.92Q46.69 7.06 46.95 6.40L46.95 6.40L46.95 6.40Q47.21 5.75 47.43 5.38L47.43 5.38L47.43 5.38Q47.66 5.01 47.84 4.98L47.84 4.98L47.84 4.98Q47.99 5.01 48.17 5.10L48.17 5.10L48.17 5.10Q48.36 5.19 48.52 5.32L48.52 5.32L48.52 5.32Q48.69 5.45 48.83 5.60L48.83 5.60L48.83 5.60Q48.97 5.75 49.06 5.91L49.06 5.91L49.06 5.91Q48.61 6.09 48.17 6.76L48.17 6.76L48.17 6.76Q47.73 7.43 47.33 8.39L47.33 8.39L47.33 8.39Q46.93 9.35 46.59 10.47L46.59 10.47L46.59 10.47Q46.24 11.59 45.98 12.68L45.98 12.68L45.98 12.68Q45.72 13.76 45.58 14.69L45.58 14.69L45.58 14.69Q45.43 15.61 45.42 16.17L45.42 16.17L45.42 16.17Q45.42 16.20 45.43 16.21L45.43 16.21L45.43 16.21Q45.39 16.23 45.34 16.23L45.34 16.23L45.34 16.23Q45.29 16.23 45.25 16.23L45.25 16.23L45.25 16.23Q44.60 16.23 44.11 16.07L44.11 16.07L44.11 16.07Q43.61 15.90 43.46 15.61L43.46 15.61L43.46 15.61Q43.16 14.43 42.97 13.34L42.97 13.34L42.97 13.34Q42.77 12.25 42.64 11.16L42.64 11.16L42.64 11.16Q42.50 10.07 42.43 8.95L42.43 8.95L42.43 8.95Q42.35 7.84 42.31 6.62L42.31 6.62L42.31 6.62Q42.04 7.04 41.75 7.72L41.75 7.72L41.75 7.72Q41.45 8.40 41.17 9.21L41.17 9.21L41.17 9.21Q40.89 10.02 40.64 10.92L40.64 10.92L40.64 10.92Q40.38 11.82 40.18 12.67L40.18 12.67L40.18 12.67Q39.98 13.52 39.87 14.29L39.87 14.29L39.87 14.29Q39.76 15.05 39.76 15.61L39.76 15.61L39.76 15.61Q39.76 15.90 39.77 16.03L39.77 16.03L39.77 16.03Q39.77 16.16 39.80 16.24ZM64.25 5.74L64.25 5.74L64.25 5.74Q64.29 5.98 64.31 6.07L64.31 6.07L64.31 6.07Q64.33 6.16 64.33 6.31L64.33 6.31L64.33 6.31Q64.33 6.78 64.13 7.18L64.13 7.18L64.13 7.18Q63.92 7.57 63.57 7.74L63.57 7.74L63.57 7.74Q63.29 7.36 62.89 7.09L62.89 7.09L62.89 7.09Q62.48 6.82 62.00 6.64L62.00 6.64L62.00 6.64Q61.52 6.47 61.00 6.38L61.00 6.38L61.00 6.38Q60.48 6.30 59.99 6.30L59.99 6.30L59.99 6.30Q59.50 6.30 59.07 6.38L59.07 6.38L59.07 6.38Q58.65 6.45 58.32 6.59L58.32 6.59L58.32 6.59Q57.99 6.72 57.80 6.92L57.80 6.92L57.80 6.92Q57.61 7.11 57.61 7.36L57.61 7.36L57.61 7.36Q57.65 7.67 57.99 7.99L57.99 7.99L57.99 7.99Q58.32 8.30 58.81 8.60L58.81 8.60L58.81 8.60Q59.30 8.90 59.90 9.20L59.90 9.20L59.90 9.20Q60.49 9.49 61.07 9.76L61.07 9.76L61.07 9.76Q61.78 10.09 62.30 10.38L62.30 10.38L62.30 10.38Q62.82 10.67 63.15 11.01L63.15 11.01L63.15 11.01Q63.49 11.35 63.66 11.79L63.66 11.79L63.66 11.79Q63.83 12.22 63.83 12.84L63.83 12.84L63.83 12.84Q63.83 13.55 63.59 14.18L63.59 14.18L63.59 14.18Q63.35 14.80 62.90 15.26L62.90 15.26L62.90 15.26Q62.44 15.72 61.80 15.98L61.80 15.98L61.80 15.98Q61.15 16.24 60.35 16.24L60.35 16.24L60.35 16.24Q59.57 16.24 58.66 16.00L58.66 16.00L58.66 16.00Q57.75 15.76 56.96 15.35L56.96 15.35L56.96 15.35Q56.17 14.94 55.64 14.40L55.64 14.40L55.64 14.40Q55.12 13.86 55.12 13.26L55.12 13.26L55.12 13.26Q55.12 12.98 55.28 12.54L55.28 12.54L55.28 12.54Q55.44 12.11 55.86 11.63L55.86 11.63L55.86 11.63Q55.90 12.05 56.31 12.63L56.31 12.63L56.31 12.63Q56.73 13.20 57.55 13.69L57.55 13.69L57.55 13.69Q58.32 14.14 59.14 14.34L59.14 14.34L59.14 14.34Q59.96 14.55 60.68 14.55L60.68 14.55L60.68 14.55Q61.46 14.55 61.95 14.35L61.95 14.35L61.95 14.35Q62.44 14.15 62.72 13.88L62.72 13.88L62.72 13.88Q63 13.61 63.11 13.33L63.11 13.33L63.11 13.33Q63.22 13.05 63.24 12.88L63.24 12.88L63.24 12.88Q63.22 12.60 62.98 12.34L62.98 12.34L62.98 12.34Q62.73 12.08 62.32 11.84L62.32 11.84L62.32 11.84Q61.91 11.59 61.36 11.34L61.36 11.34L61.36 11.34Q60.82 11.09 60.23 10.84L60.23 10.84L60.23 10.84Q59.35 10.44 58.71 10.10L58.71 10.10L58.71 10.10Q58.07 9.76 57.66 9.40L57.66 9.40L57.66 9.40Q57.25 9.04 57.06 8.65L57.06 8.65L57.06 8.65Q56.87 8.26 56.87 7.76L56.87 7.76L56.87 7.76Q56.87 6.97 57.34 6.27L57.34 6.27L57.34 6.27Q57.82 5.57 58.72 5.21L58.72 5.21L58.72 5.21Q59.16 5.01 59.67 4.93L59.67 4.93L59.67 4.93Q60.19 4.84 60.68 4.84L60.68 4.84L60.68 4.84Q61.60 4.84 62.48 5.10L62.48 5.10L62.48 5.10Q63.36 5.35 64.25 5.74ZM74.23 6.69L74.23 6.69L74.23 6.69Q73.67 6.69 73.37 6.38L73.37 6.38L73.37 6.38Q73.07 6.06 73.07 5.61L73.07 5.61L73.07 5.61Q73.07 5.50 73.10 5.35L73.10 5.35L73.10 5.35Q73.14 5.19 73.19 5.08L73.19 5.08L73.19 5.08Q73.37 5.17 73.73 5.20L73.73 5.20L73.73 5.20Q74.09 5.24 74.56 5.24L74.56 5.24L74.56 5.24Q75.28 5.24 76.18 5.17L76.18 5.17L76.18 5.17Q77.08 5.11 77.91 5.04L77.91 5.04L77.91 5.04Q78.74 4.97 79.37 4.91L79.37 4.91L79.37 4.91Q80.00 4.84 80.18 4.84L80.18 4.84L80.18 4.84Q80.70 4.84 80.93 5.23L80.93 5.23L80.93 5.23Q81.16 5.61 81.27 6.26L81.27 6.26L81.27 6.26Q80.91 6.23 80.55 6.21L80.55 6.21L80.55 6.21Q80.19 6.19 79.94 6.19L79.94 6.19L79.94 6.19Q79.49 6.19 79.04 6.22L79.04 6.22L79.04 6.22Q78.58 6.24 78.12 6.30L78.12 6.30L78.12 6.30Q77.92 6.71 77.69 7.26L77.69 7.26L77.69 7.26Q77.45 7.81 77.22 8.41L77.22 8.41L77.22 8.41Q76.99 9.02 76.78 9.61L76.78 9.61L76.78 9.61Q76.57 10.21 76.41 10.68L76.41 10.68L76.41 10.68Q76.10 11.61 75.87 12.39L75.87 12.39L75.87 12.39Q75.64 13.17 75.47 13.85L75.47 13.85L75.47 13.85Q75.29 14.53 75.17 15.15L75.17 15.15L75.17 15.15Q75.04 15.76 74.94 16.35L74.94 16.35L74.94 16.35Q74.00 16.21 73.37 15.18L73.37 15.18L73.37 15.18Q73.49 14.74 73.65 14.23L73.65 14.23L73.65 14.23Q73.81 13.72 74.03 13.07L74.03 13.07L74.03 13.07Q74.24 12.42 74.54 11.59L74.54 11.59L74.54 11.59Q74.83 10.77 75.21 9.72L75.21 9.72L75.21 9.72Q75.35 9.32 75.50 8.90L75.50 8.90L75.50 8.90Q75.66 8.47 75.80 8.05L75.80 8.05L75.80 8.05Q75.95 7.63 76.07 7.24L76.07 7.24L76.07 7.24Q76.19 6.85 76.27 6.52L76.27 6.52L76.27 6.52Q75.68 6.59 75.16 6.64L75.16 6.64L75.16 6.64Q74.63 6.69 74.23 6.69ZM92.47 9.21L92.47 9.21L92.47 9.21Q92.93 9.21 93.19 9.46L93.19 9.46L93.19 9.46Q93.45 9.72 93.45 10.16L93.45 10.16L93.45 10.16Q93.45 10.28 93.43 10.39L93.43 10.39L93.43 10.39Q93.41 10.51 93.38 10.60L93.38 10.60L93.38 10.60Q93.20 10.57 92.97 10.55L92.97 10.55L92.97 10.55Q92.75 10.53 92.44 10.53L92.44 10.53L92.44 10.53Q91.84 10.53 91.22 10.63L91.22 10.63L91.22 10.63Q90.61 10.74 90.05 10.81L90.05 10.81L90.05 10.81Q89.73 11.55 89.46 12.24L89.46 12.24L89.46 12.24Q89.19 12.94 89.00 13.51L89.00 13.51L89.00 13.51Q88.82 14.08 88.71 14.50L88.71 14.50L88.71 14.50Q88.61 14.92 88.59 15.13L88.59 15.13L88.59 15.13Q89.73 14.90 90.88 14.73L90.88 14.73L90.88 14.73Q92.04 14.56 93.31 14.48L93.31 14.48L93.31 14.48Q93.46 14.71 93.57 14.99L93.57 14.99L93.57 14.99Q93.67 15.27 93.67 15.60L93.67 15.60L93.67 15.60Q93.67 15.68 93.67 15.78L93.67 15.78L93.67 15.78Q93.67 15.88 93.65 15.97L93.65 15.97L93.65 15.97Q93.25 15.96 92.82 15.95L92.82 15.95L92.82 15.95Q92.39 15.95 91.69 15.95L91.69 15.95L91.69 15.95Q91.22 15.95 90.81 15.97L90.81 15.97L90.81 15.97Q90.40 15.99 89.98 16.03L89.98 16.03L89.98 16.03Q89.56 16.07 89.09 16.14L89.09 16.14L89.09 16.14Q88.62 16.21 88.03 16.31L88.03 16.31L88.03 16.31Q87.39 16.06 86.79 15.08L86.79 15.08L86.79 15.08Q87.02 14.57 87.45 13.54L87.45 13.54L87.45 13.54Q87.88 12.52 88.54 10.79L88.54 10.79L88.54 10.79Q87.91 10.60 87.71 10.09L87.71 10.09L87.71 10.09Q87.78 10.02 88.12 9.92L88.12 9.92L88.12 9.92Q88.45 9.81 88.94 9.70L88.94 9.70L88.94 9.70Q89.15 9.16 89.30 8.75L89.30 8.75L89.30 8.75Q89.45 8.34 89.56 7.99L89.56 7.99L89.56 7.99Q89.67 7.63 89.76 7.29L89.76 7.29L89.76 7.29Q89.85 6.94 89.94 6.54L89.94 6.54L89.94 6.54Q89.45 6.51 89.17 6.27L89.17 6.27L89.17 6.27Q88.89 6.02 88.89 5.63L88.89 5.63L88.89 5.63Q88.89 5.52 88.92 5.36L88.92 5.36L88.92 5.36Q88.96 5.21 89.00 5.10L89.00 5.10L89.00 5.10Q89.28 5.14 89.54 5.15L89.54 5.15L89.54 5.15Q89.80 5.17 90.22 5.17L90.22 5.17L90.22 5.17Q91.10 5.17 91.87 5.12L91.87 5.12L91.87 5.12Q92.64 5.07 93.26 5.01L93.26 5.01L93.26 5.01Q93.88 4.96 94.33 4.91L94.33 4.91L94.33 4.91Q94.78 4.86 95.02 4.86L95.02 4.86L95.02 4.86Q95.34 4.86 95.59 5.19L95.59 5.19L95.59 5.19Q95.84 5.53 95.97 6.15L95.97 6.15L95.97 6.15Q95.54 6.10 95.26 6.09L95.26 6.09L95.26 6.09Q94.99 6.08 94.78 6.08L94.78 6.08L94.78 6.08Q94.01 6.08 93.37 6.15L93.37 6.15L93.37 6.15Q92.74 6.23 92.15 6.31L92.15 6.31L92.15 6.31Q92.06 6.44 91.96 6.64L91.96 6.64L91.96 6.64Q91.85 6.83 91.69 7.18L91.69 7.18L91.69 7.18Q91.52 7.53 91.27 8.06L91.27 8.06L91.27 8.06Q91.03 8.60 90.68 9.39L90.68 9.39L90.68 9.39Q91.21 9.31 91.68 9.26L91.68 9.26L91.68 9.26Q92.15 9.21 92.47 9.21ZM111.73 7.46L111.73 7.46L111.73 7.46Q111.73 8.13 111.43 8.73L111.43 8.73L111.43 8.73Q111.13 9.32 110.60 9.79L110.60 9.79L110.60 9.79Q110.07 10.26 109.35 10.58L109.35 10.58L109.35 10.58Q108.64 10.91 107.80 11.02L107.80 11.02L107.80 11.02Q108.01 11.65 108.31 12.31L108.31 12.31L108.31 12.31Q108.61 12.98 108.96 13.59L108.96 13.59L108.96 13.59Q109.31 14.21 109.69 14.73L109.69 14.73L109.69 14.73Q110.07 15.25 110.43 15.58L110.43 15.58L110.43 15.58Q110.36 15.72 110.23 15.86L110.23 15.86L110.23 15.86Q110.10 16.00 109.92 16.12L109.92 16.12L109.92 16.12Q109.75 16.24 109.56 16.32L109.56 16.32L109.56 16.32Q109.37 16.39 109.20 16.39L109.20 16.39L109.20 16.39Q108.89 16.39 108.61 16.10L108.61 16.10L108.61 16.10Q108.33 15.81 108.05 15.17L108.05 15.17L108.05 15.17Q107.76 14.53 107.44 13.52L107.44 13.52L107.44 13.52Q107.13 12.50 106.75 11.07L106.75 11.07L106.75 11.07Q106.60 11.07 106.44 11.07L106.44 11.07L106.44 11.07Q106.29 11.07 106.20 11.05L106.20 11.05L106.20 11.05Q106.11 10.99 105.99 10.85L105.99 10.85L105.99 10.85Q105.62 11.66 105.32 12.38L105.32 12.38L105.32 12.38Q105.03 13.09 104.80 13.76L104.80 13.76L104.80 13.76Q104.57 14.42 104.39 15.04L104.39 15.04L104.39 15.04Q104.22 15.67 104.09 16.31L104.09 16.31L104.09 16.31Q103.61 16.20 103.26 15.90L103.26 15.90L103.26 15.90Q102.91 15.61 102.61 15.08L102.61 15.08L102.61 15.08Q102.66 14.95 102.72 14.83L102.72 14.83L102.72 14.83Q102.79 14.71 102.89 14.50L102.89 14.50L102.89 14.50Q102.98 14.28 103.13 13.94L103.13 13.94L103.13 13.94Q103.28 13.61 103.52 13.05L103.52 13.05L103.52 13.05Q103.77 12.49 104.11 11.68L104.11 11.68L104.11 11.68Q104.45 10.86 104.94 9.70L104.94 9.70L104.94 9.70Q105.17 9.18 105.33 8.79L105.33 8.79L105.33 8.79Q105.49 8.40 105.62 8.04L105.62 8.04L105.62 8.04Q105.74 7.69 105.85 7.33L105.85 7.33L105.85 7.33Q105.95 6.97 106.06 6.51L106.06 6.51L106.06 6.51Q105.42 6.73 104.87 7.01L104.87 7.01L104.87 7.01Q104.31 7.28 103.95 7.59L103.95 7.59L103.95 7.59Q103.82 7.50 103.69 7.34L103.69 7.34L103.69 7.34Q103.56 7.17 103.45 6.96L103.45 6.96L103.45 6.96Q103.33 6.76 103.25 6.55L103.25 6.55L103.25 6.55Q103.17 6.34 103.15 6.17L103.15 6.17L103.15 6.17Q103.57 5.89 104.18 5.66L104.18 5.66L104.18 5.66Q104.79 5.42 105.48 5.24L105.48 5.24L105.48 5.24Q106.16 5.07 106.88 4.97L106.88 4.97L106.88 4.97Q107.59 4.87 108.21 4.87L108.21 4.87L108.21 4.87Q109.89 4.87 110.81 5.56L110.81 5.56L110.81 5.56Q111.73 6.26 111.73 7.46ZM108.15 6.02L108.32 6.29L108.32 6.29Q108.22 6.41 108.01 6.79L108.01 6.79L108.01 6.79Q107.80 7.17 107.53 7.69L107.53 7.69L107.53 7.69Q107.25 8.22 106.95 8.83L106.95 8.83L106.95 8.83Q106.65 9.45 106.37 10.05L106.37 10.05L106.37 10.05Q107.42 10.05 108.30 9.86L108.30 9.86L108.30 9.86Q109.19 9.66 109.83 9.30L109.83 9.30L109.83 9.30Q110.47 8.95 110.83 8.46L110.83 8.46L110.83 8.46Q111.19 7.98 111.19 7.39L111.19 7.39L111.19 7.39Q111.19 6.69 110.68 6.32L110.68 6.32L110.68 6.32Q110.18 5.95 109.13 5.95L109.13 5.95L109.13 5.95Q108.89 5.95 108.65 5.97L108.65 5.97L108.65 5.97Q108.42 5.99 108.15 6.02L108.15 6.02ZM135.67 4.98L135.67 4.98L135.67 4.98Q135.94 5.10 136.22 5.27L136.22 5.27L136.22 5.27Q136.50 5.45 136.74 5.63L136.74 5.63L136.74 5.63Q136.98 5.81 137.14 5.98L137.14 5.98L137.14 5.98Q137.30 6.16 137.31 6.27L137.31 6.27L137.31 6.27Q137.07 6.22 136.84 6.20L136.84 6.20L136.84 6.20Q136.60 6.17 136.40 6.17L136.40 6.17L136.40 6.17Q135.77 6.17 135.15 6.48L135.15 6.48L135.15 6.48Q134.53 6.79 133.97 7.32L133.97 7.32L133.97 7.32Q133.41 7.85 132.93 8.57L132.93 8.57L132.93 8.57Q132.45 9.28 132.11 10.09L132.11 10.09L132.11 10.09Q131.77 10.91 131.57 11.77L131.57 11.77L131.57 11.77Q131.38 12.64 131.38 13.48L131.38 13.48L131.38 13.48Q131.38 14.57 131.74 15.11L131.74 15.11L131.74 15.11Q132.10 15.64 132.80 15.64L132.80 15.64L132.80 15.64Q133.14 15.64 133.53 15.51L133.53 15.51L133.53 15.51Q133.92 15.37 134.33 15.13L134.33 15.13L134.33 15.13Q134.74 14.90 135.13 14.56L135.13 14.56L135.13 14.56Q135.52 14.22 135.86 13.82L135.86 13.82L135.86 13.82Q136.35 13.23 136.74 12.48L136.74 12.48L136.74 12.48Q137.13 11.73 137.40 10.89L137.40 10.89L137.40 10.89Q137.68 10.05 137.82 9.16L137.82 9.16L137.82 9.16Q137.97 8.27 137.97 7.42L137.97 7.42L137.97 7.42Q137.97 7.08 137.96 6.85L137.96 6.85L137.96 6.85Q137.94 6.62 137.92 6.46L137.92 6.46L137.92 6.46Q137.90 6.30 137.89 6.20L137.89 6.20L137.89 6.20Q137.87 6.10 137.86 6.03L137.86 6.03L137.86 6.03Q138.03 6.12 138.23 6.24L138.23 6.24L138.23 6.24Q138.43 6.36 138.61 6.59L138.61 6.59L138.61 6.59Q138.78 6.82 138.90 7.20L138.90 7.20L138.90 7.20Q139.02 7.57 139.02 8.18L139.02 8.18L139.02 8.18Q139.02 9.16 138.79 10.10L138.79 10.10L138.79 10.10Q138.56 11.05 138.14 11.90L138.14 11.90L138.14 11.90Q137.73 12.75 137.17 13.50L137.17 13.50L137.17 13.50Q136.61 14.24 135.97 14.80L135.97 14.80L135.97 14.80Q135.13 15.54 134.18 15.95L134.18 15.95L134.18 15.95Q133.22 16.35 132.34 16.35L132.34 16.35L132.34 16.35Q131.05 16.35 130.37 15.53L130.37 15.53L130.37 15.53Q129.70 14.71 129.70 13.12L129.70 13.12L129.70 13.12Q129.70 12.26 129.88 11.31L129.88 11.31L129.88 11.31Q130.07 10.36 130.42 9.44L130.42 9.44L130.42 9.44Q130.76 8.51 131.24 7.68L131.24 7.68L131.24 7.68Q131.71 6.85 132.28 6.21L132.28 6.21L132.28 6.21Q132.85 5.57 133.50 5.19L133.50 5.19L133.50 5.19Q134.15 4.82 134.83 4.82L134.83 4.82L134.83 4.82Q135.06 4.82 135.25 4.85L135.25 4.85L135.25 4.85Q135.45 4.89 135.67 4.98ZM147.59 16.24L147.59 16.24L147.59 16.24Q146.79 16.00 146.51 15.79L146.51 15.79L146.51 15.79Q146.23 15.57 146.23 15.19L146.23 15.19L146.23 15.19Q146.23 14.77 146.43 14.01L146.43 14.01L146.43 14.01Q146.62 13.24 146.94 12.31L146.94 12.31L146.94 12.31Q147.25 11.37 147.66 10.35L147.66 10.35L147.66 10.35Q148.06 9.32 148.48 8.39L148.48 8.39L148.48 8.39Q148.90 7.45 149.30 6.67L149.30 6.67L149.30 6.67Q149.70 5.89 150.01 5.46L150.01 5.46L149.91 4.87L149.91 4.87Q150.11 4.87 150.46 4.97L150.46 4.97L150.46 4.97Q150.81 5.07 151.16 5.21L151.16 5.21L151.16 5.21Q151.52 5.35 151.79 5.49L151.79 5.49L151.79 5.49Q152.07 5.64 152.10 5.74L152.10 5.74L152.10 5.74Q152.03 6.08 151.98 6.76L151.98 6.76L151.98 6.76Q151.94 7.43 151.94 8.20L151.94 8.20L151.94 8.20Q151.94 9.73 152.06 11.19L152.06 11.19L152.06 11.19Q152.18 12.66 152.61 14.17L152.61 14.17L152.61 14.17Q152.84 13.05 153.10 11.94L153.10 11.94L153.10 11.94Q153.36 10.82 153.64 9.81L153.64 9.81L153.64 9.81Q153.92 8.79 154.20 7.92L154.20 7.92L154.20 7.92Q154.48 7.06 154.73 6.40L154.73 6.40L154.73 6.40Q154.99 5.75 155.22 5.38L155.22 5.38L155.22 5.38Q155.44 5.01 155.62 4.98L155.62 4.98L155.62 4.98Q155.78 5.01 155.96 5.10L155.96 5.10L155.96 5.10Q156.14 5.19 156.31 5.32L156.31 5.32L156.31 5.32Q156.48 5.45 156.62 5.60L156.62 5.60L156.62 5.60Q156.76 5.75 156.84 5.91L156.84 5.91L156.84 5.91Q156.39 6.09 155.95 6.76L155.95 6.76L155.95 6.76Q155.51 7.43 155.11 8.39L155.11 8.39L155.11 8.39Q154.71 9.35 154.37 10.47L154.37 10.47L154.37 10.47Q154.03 11.59 153.77 12.68L153.77 12.68L153.77 12.68Q153.51 13.76 153.36 14.69L153.36 14.69L153.36 14.69Q153.22 15.61 153.20 16.17L153.20 16.17L153.20 16.17Q153.20 16.20 153.22 16.21L153.22 16.21L153.22 16.21Q153.17 16.23 153.13 16.23L153.13 16.23L153.13 16.23Q153.08 16.23 153.03 16.23L153.03 16.23L153.03 16.23Q152.39 16.23 151.89 16.07L151.89 16.07L151.89 16.07Q151.40 15.90 151.24 15.61L151.24 15.61L151.24 15.61Q150.95 14.43 150.75 13.34L150.75 13.34L150.75 13.34Q150.56 12.25 150.42 11.16L150.42 11.16L150.42 11.16Q150.29 10.07 150.21 8.95L150.21 8.95L150.21 8.95Q150.14 7.84 150.09 6.62L150.09 6.62L150.09 6.62Q149.83 7.04 149.53 7.72L149.53 7.72L149.53 7.72Q149.24 8.40 148.96 9.21L148.96 9.21L148.96 9.21Q148.68 10.02 148.42 10.92L148.42 10.92L148.42 10.92Q148.16 11.82 147.97 12.67L147.97 12.67L147.97 12.67Q147.77 13.52 147.66 14.29L147.66 14.29L147.66 14.29Q147.55 15.05 147.55 15.61L147.55 15.61L147.55 15.61Q147.55 15.90 147.55 16.03L147.55 16.03L147.55 16.03Q147.56 16.16 147.59 16.24ZM174.17 14.45L174.17 14.45L174.17 14.45Q174.38 13.99 174.68 13.26L174.68 13.26L174.68 13.26Q174.97 12.53 175.29 11.68L175.29 11.68L175.29 11.68Q175.62 10.84 175.95 9.95L175.95 9.95L175.95 9.95Q176.29 9.06 176.58 8.26L176.58 8.26L176.58 8.26Q176.88 7.46 177.09 6.83L177.09 6.83L177.09 6.83Q177.31 6.20 177.41 5.87L177.41 5.87L177.41 5.87Q176.53 6.23 175.90 6.97L175.90 6.97L175.90 6.97Q175.27 7.71 174.94 8.83L174.94 8.83L174.94 8.83Q174.62 8.72 174.36 8.43L174.36 8.43L174.36 8.43Q174.09 8.15 174.01 7.71L174.01 7.71L174.01 7.71Q174.15 7.07 174.53 6.54L174.53 6.54L174.53 6.54Q174.92 6.01 175.50 5.63L175.50 5.63L175.50 5.63Q176.09 5.25 176.86 5.05L176.86 5.05L176.86 5.05Q177.63 4.84 178.51 4.84L178.51 4.84L178.51 4.84Q179.63 4.84 180.57 5.17L180.57 5.17L180.57 5.17Q181.51 5.50 182.18 6.09L182.18 6.09L182.18 6.09Q182.85 6.68 183.23 7.50L183.23 7.50L183.23 7.50Q183.61 8.33 183.61 9.34L183.61 9.34L183.61 9.34Q183.61 10.71 183.11 11.96L183.11 11.96L183.11 11.96Q182.60 13.20 181.74 14.15L181.74 14.15L181.74 14.15Q180.88 15.11 179.75 15.67L179.75 15.67L179.75 15.67Q178.61 16.24 177.37 16.24L177.37 16.24L177.37 16.24Q176.22 16.24 175.40 15.79L175.40 15.79L175.40 15.79Q174.58 15.33 174.17 14.45ZM179.12 5.54L179.12 5.54L179.12 5.54Q178.42 5.54 177.79 5.74L177.79 5.74L177.79 5.74Q178.40 5.96 178.81 6.21L178.81 6.21L178.81 6.21Q179.21 6.45 179.37 6.59L179.37 6.59L179.37 6.59Q179.26 6.75 179.04 7.14L179.04 7.14L179.04 7.14Q178.82 7.53 178.53 8.09L178.53 8.09L178.53 8.09Q178.25 8.65 177.93 9.32L177.93 9.32L177.93 9.32Q177.60 9.98 177.30 10.68L177.30 10.68L177.30 10.68Q176.50 12.46 176.14 13.48L176.14 13.48L176.14 13.48Q175.78 14.50 175.78 14.90L175.78 14.90L175.78 14.90Q175.98 14.97 176.26 14.99L176.26 14.99L176.26 14.99Q176.54 15.02 176.86 15.02L176.86 15.02L176.86 15.02Q178.00 15.02 179.01 14.50L179.01 14.50L179.01 14.50Q180.03 13.97 180.79 13.09L180.79 13.09L180.79 13.09Q181.55 12.21 181.99 11.04L181.99 11.04L181.99 11.04Q182.43 9.87 182.43 8.58L182.43 8.58L182.43 8.58Q182.43 7.14 181.54 6.34L181.54 6.34L181.54 6.34Q180.64 5.54 179.12 5.54ZM196.91 9.21L196.91 9.21L196.91 9.21Q197.37 9.21 197.63 9.46L197.63 9.46L197.63 9.46Q197.89 9.72 197.89 10.16L197.89 10.16L197.89 10.16Q197.89 10.28 197.87 10.39L197.87 10.39L197.87 10.39Q197.85 10.51 197.82 10.60L197.82 10.60L197.82 10.60Q197.64 10.57 197.41 10.55L197.41 10.55L197.41 10.55Q197.19 10.53 196.88 10.53L196.88 10.53L196.88 10.53Q196.28 10.53 195.66 10.63L195.66 10.63L195.66 10.63Q195.05 10.74 194.49 10.81L194.49 10.81L194.49 10.81Q194.17 11.55 193.90 12.24L193.90 12.24L193.90 12.24Q193.63 12.94 193.44 13.51L193.44 13.51L193.44 13.51Q193.26 14.08 193.15 14.50L193.15 14.50L193.15 14.50Q193.05 14.92 193.03 15.13L193.03 15.13L193.03 15.13Q194.17 14.90 195.32 14.73L195.32 14.73L195.32 14.73Q196.48 14.56 197.75 14.48L197.75 14.48L197.75 14.48Q197.90 14.71 198.01 14.99L198.01 14.99L198.01 14.99Q198.11 15.27 198.11 15.60L198.11 15.60L198.11 15.60Q198.11 15.68 198.11 15.78L198.11 15.78L198.11 15.78Q198.11 15.88 198.09 15.97L198.09 15.97L198.09 15.97Q197.69 15.96 197.26 15.95L197.26 15.95L197.26 15.95Q196.83 15.95 196.13 15.95L196.13 15.95L196.13 15.95Q195.66 15.95 195.25 15.97L195.25 15.97L195.25 15.97Q194.84 15.99 194.42 16.03L194.42 16.03L194.42 16.03Q194.00 16.07 193.53 16.14L193.53 16.14L193.53 16.14Q193.06 16.21 192.47 16.31L192.47 16.31L192.47 16.31Q191.83 16.06 191.23 15.08L191.23 15.08L191.23 15.08Q191.46 14.57 191.89 13.54L191.89 13.54L191.89 13.54Q192.32 12.52 192.98 10.79L192.98 10.79L192.98 10.79Q192.35 10.60 192.15 10.09L192.15 10.09L192.15 10.09Q192.22 10.02 192.56 9.92L192.56 9.92L192.56 9.92Q192.89 9.81 193.38 9.70L193.38 9.70L193.38 9.70Q193.59 9.16 193.74 8.75L193.74 8.75L193.74 8.75Q193.89 8.34 194.00 7.99L194.00 7.99L194.00 7.99Q194.11 7.63 194.20 7.29L194.20 7.29L194.20 7.29Q194.29 6.94 194.38 6.54L194.38 6.54L194.38 6.54Q193.89 6.51 193.61 6.27L193.61 6.27L193.61 6.27Q193.33 6.02 193.33 5.63L193.33 5.63L193.33 5.63Q193.33 5.52 193.36 5.36L193.36 5.36L193.36 5.36Q193.40 5.21 193.44 5.10L193.44 5.10L193.44 5.10Q193.72 5.14 193.98 5.15L193.98 5.15L193.98 5.15Q194.24 5.17 194.66 5.17L194.66 5.17L194.66 5.17Q195.54 5.17 196.31 5.12L196.31 5.12L196.31 5.12Q197.08 5.07 197.70 5.01L197.70 5.01L197.70 5.01Q198.32 4.96 198.77 4.91L198.77 4.91L198.77 4.91Q199.22 4.86 199.46 4.86L199.46 4.86L199.46 4.86Q199.78 4.86 200.03 5.19L200.03 5.19L200.03 5.19Q200.28 5.53 200.41 6.15L200.41 6.15L200.41 6.15Q199.98 6.10 199.70 6.09L199.70 6.09L199.70 6.09Q199.43 6.08 199.22 6.08L199.22 6.08L199.22 6.08Q198.45 6.08 197.81 6.15L197.81 6.15L197.81 6.15Q197.18 6.23 196.59 6.31L196.59 6.31L196.59 6.31Q196.50 6.44 196.40 6.64L196.40 6.64L196.40 6.64Q196.29 6.83 196.13 7.18L196.13 7.18L196.13 7.18Q195.96 7.53 195.71 8.06L195.71 8.06L195.71 8.06Q195.47 8.60 195.12 9.39L195.12 9.39L195.12 9.39Q195.65 9.31 196.12 9.26L196.12 9.26L196.12 9.26Q196.59 9.21 196.91 9.21ZM212.52 9.34L212.52 9.34L212.52 9.34Q212.97 9.34 213.23 9.59L213.23 9.59L213.23 9.59Q213.49 9.84 213.49 10.29L213.49 10.29L213.49 10.29Q213.49 10.40 213.47 10.52L213.47 10.52L213.47 10.52Q213.46 10.64 213.42 10.72L213.42 10.72L213.42 10.72Q213.23 10.70 213.01 10.68L213.01 10.68L213.01 10.68Q212.79 10.65 212.48 10.65L212.48 10.65L212.48 10.65Q211.85 10.65 211.22 10.77L211.22 10.77L211.22 10.77Q210.59 10.88 210.01 10.95L210.01 10.95L210.01 10.95Q209.38 12.43 208.98 13.73L208.98 13.73L208.98 13.73Q208.57 15.04 208.35 16.31L208.35 16.31L208.35 16.31Q207.87 16.20 207.51 15.90L207.51 15.90L207.51 15.90Q207.14 15.61 206.82 15.08L206.82 15.08L206.82 15.08Q206.92 14.85 207.06 14.54L207.06 14.54L207.06 14.54Q207.20 14.22 207.40 13.74L207.40 13.74L207.40 13.74Q207.59 13.26 207.87 12.56L207.87 12.56L207.87 12.56Q208.14 11.87 208.52 10.91L208.52 10.91L208.52 10.91Q207.93 10.71 207.75 10.22L207.75 10.22L207.75 10.22Q207.82 10.15 208.14 10.06L208.14 10.06L208.14 10.06Q208.46 9.97 208.92 9.86L208.92 9.86L208.92 9.86Q209.13 9.31 209.29 8.88L209.29 8.88L209.29 8.88Q209.44 8.46 209.57 8.07L209.57 8.07L209.57 8.07Q209.69 7.69 209.80 7.32L209.80 7.32L209.80 7.32Q209.90 6.94 209.99 6.52L209.99 6.52L209.92 6.52L209.92 6.52Q209.38 6.52 209.06 6.27L209.06 6.27L209.06 6.27Q208.73 6.02 208.73 5.61L208.73 5.61L208.73 5.61Q208.73 5.50 208.76 5.35L208.76 5.35L208.76 5.35Q208.80 5.19 208.85 5.08L208.85 5.08L208.85 5.08Q209.12 5.12 209.38 5.14L209.38 5.14L209.38 5.14Q209.64 5.15 210.06 5.15L210.06 5.15L210.06 5.15Q210.94 5.15 211.71 5.10L211.71 5.10L211.71 5.10Q212.48 5.05 213.10 5.00L213.10 5.00L213.10 5.00Q213.72 4.94 214.17 4.89L214.17 4.89L214.17 4.89Q214.62 4.84 214.86 4.84L214.86 4.84L214.86 4.84Q215.18 4.84 215.43 5.18L215.43 5.18L215.43 5.18Q215.68 5.52 215.82 6.13L215.82 6.13L215.82 6.13Q215.38 6.09 215.10 6.08L215.10 6.08L215.10 6.08Q214.83 6.06 214.62 6.06L214.62 6.06L214.62 6.06Q213.91 6.06 213.31 6.13L213.31 6.13L213.31 6.13Q212.72 6.19 212.18 6.27L212.18 6.27L212.18 6.27Q212.10 6.40 212.00 6.59L212.00 6.59L212.00 6.59Q211.89 6.79 211.72 7.15L211.72 7.15L211.72 7.15Q211.55 7.50 211.30 8.08L211.30 8.08L211.30 8.08Q211.04 8.65 210.64 9.53L210.64 9.53L210.64 9.53Q211.19 9.45 211.69 9.39L211.69 9.39L211.69 9.39Q212.18 9.34 212.52 9.34ZM221.79 14.38L221.79 14.38L221.79 14.38Q221.79 13.87 221.95 13.07L221.95 13.07L221.95 13.07Q222.11 12.26 222.37 11.33L222.37 11.33L222.37 11.33Q222.63 10.40 222.96 9.43L222.96 9.43L222.96 9.43Q223.30 8.46 223.65 7.60L223.65 7.60L223.65 7.60Q224 6.75 224.34 6.10L224.34 6.10L224.34 6.10Q224.67 5.46 224.94 5.18L224.94 5.18L224.94 5.18Q225.08 5.19 225.31 5.29L225.31 5.29L225.31 5.29Q225.54 5.38 225.78 5.50L225.78 5.50L225.78 5.50Q226.02 5.63 226.21 5.78L226.21 5.78L226.21 5.78Q226.41 5.92 226.46 6.05L226.46 6.05L226.46 6.05Q226.06 6.41 225.66 7.15L225.66 7.15L225.66 7.15Q225.26 7.88 224.89 8.82L224.89 8.82L224.89 8.82Q224.52 9.76 224.20 10.80L224.20 10.80L224.20 10.80Q223.87 11.84 223.64 12.82L223.64 12.82L223.64 12.82Q223.40 13.80 223.27 14.64L223.27 14.64L223.27 14.64Q223.13 15.48 223.13 16.00L223.13 16.00L223.13 16.00Q223.13 16.24 223.17 16.30L223.17 16.30L223.17 16.30Q222.87 16.28 222.73 16.19L222.73 16.19L222.73 16.19Q222.59 16.10 222.51 16.00L222.51 16.00L222.51 16.00Q222.43 15.89 222.37 15.79L222.37 15.79L222.37 15.79Q222.31 15.68 222.18 15.62L222.18 15.62L222.18 15.62Q222.08 15.58 222.01 15.43L222.01 15.43L222.01 15.43Q221.94 15.27 221.89 15.09L221.89 15.09L221.89 15.09Q221.84 14.90 221.82 14.70L221.82 14.70L221.82 14.70Q221.79 14.50 221.79 14.38ZM252.24 5.74L252.24 5.74L252.24 5.74Q252.28 5.98 252.30 6.07L252.30 6.07L252.30 6.07Q252.32 6.16 252.32 6.31L252.32 6.31L252.32 6.31Q252.32 6.78 252.12 7.18L252.12 7.18L252.12 7.18Q251.92 7.57 251.57 7.74L251.57 7.74L251.57 7.74Q251.29 7.36 250.88 7.09L250.88 7.09L250.88 7.09Q250.47 6.82 249.99 6.64L249.99 6.64L249.99 6.64Q249.51 6.47 248.99 6.38L248.99 6.38L248.99 6.38Q248.47 6.30 247.98 6.30L247.98 6.30L247.98 6.30Q247.49 6.30 247.06 6.38L247.06 6.38L247.06 6.38Q246.64 6.45 246.31 6.59L246.31 6.59L246.31 6.59Q245.98 6.72 245.79 6.92L245.79 6.92L245.79 6.92Q245.60 7.11 245.60 7.36L245.60 7.36L245.60 7.36Q245.64 7.67 245.98 7.99L245.98 7.99L245.98 7.99Q246.32 8.30 246.81 8.60L246.81 8.60L246.81 8.60Q247.30 8.90 247.89 9.20L247.89 9.20L247.89 9.20Q248.49 9.49 249.06 9.76L249.06 9.76L249.06 9.76Q249.77 10.09 250.29 10.38L250.29 10.38L250.29 10.38Q250.81 10.67 251.15 11.01L251.15 11.01L251.15 11.01Q251.48 11.35 251.65 11.79L251.65 11.79L251.65 11.79Q251.82 12.22 251.82 12.84L251.82 12.84L251.82 12.84Q251.82 13.55 251.58 14.18L251.58 14.18L251.58 14.18Q251.34 14.80 250.89 15.26L250.89 15.26L250.89 15.26Q250.43 15.72 249.79 15.98L249.79 15.98L249.79 15.98Q249.14 16.24 248.35 16.24L248.35 16.24L248.35 16.24Q247.56 16.24 246.65 16.00L246.65 16.00L246.65 16.00Q245.74 15.76 244.95 15.35L244.95 15.35L244.95 15.35Q244.16 14.94 243.63 14.40L243.63 14.40L243.63 14.40Q243.11 13.86 243.11 13.26L243.11 13.26L243.11 13.26Q243.11 12.98 243.27 12.54L243.27 12.54L243.27 12.54Q243.43 12.11 243.85 11.63L243.85 11.63L243.85 11.63Q243.89 12.05 244.31 12.63L244.31 12.63L244.31 12.63Q244.72 13.20 245.55 13.69L245.55 13.69L245.55 13.69Q246.32 14.14 247.13 14.34L247.13 14.34L247.13 14.34Q247.95 14.55 248.67 14.55L248.67 14.55L248.67 14.55Q249.45 14.55 249.94 14.35L249.94 14.35L249.94 14.35Q250.43 14.15 250.71 13.88L250.71 13.88L250.71 13.88Q250.99 13.61 251.10 13.33L251.10 13.33L251.10 13.33Q251.22 13.05 251.23 12.88L251.23 12.88L251.23 12.88Q251.22 12.60 250.97 12.34L250.97 12.34L250.97 12.34Q250.73 12.08 250.31 11.84L250.31 11.84L250.31 11.84Q249.90 11.59 249.35 11.34L249.35 11.34L249.35 11.34Q248.81 11.09 248.22 10.84L248.22 10.84L248.22 10.84Q247.34 10.44 246.70 10.10L246.70 10.10L246.70 10.10Q246.06 9.76 245.65 9.40L245.65 9.40L245.65 9.40Q245.24 9.04 245.05 8.65L245.05 8.65L245.05 8.65Q244.86 8.26 244.86 7.76L244.86 7.76L244.86 7.76Q244.86 6.97 245.34 6.27L245.34 6.27L245.34 6.27Q245.81 5.57 246.71 5.21L246.71 5.21L246.71 5.21Q247.16 5.01 247.67 4.93L247.67 4.93L247.67 4.93Q248.18 4.84 248.67 4.84L248.67 4.84L248.67 4.84Q249.59 4.84 250.47 5.10L250.47 5.10L250.47 5.10Q251.36 5.35 252.24 5.74ZM269.47 7.63L269.47 7.63L269.47 7.63Q269.47 8.40 269.09 9.10L269.09 9.10L269.09 9.10Q268.70 9.80 268.05 10.32L268.05 10.32L268.05 10.32Q267.40 10.85 266.52 11.16L266.52 11.16L266.52 11.16Q265.65 11.47 264.67 11.47L264.67 11.47L264.67 11.47Q264.32 11.47 264.12 11.38L264.12 11.38L264.12 11.38Q263.91 11.28 263.66 11.02L263.66 11.02L263.66 11.02Q262.96 12.54 262.52 13.82L262.52 13.82L262.52 13.82Q262.08 15.11 261.83 16.31L261.83 16.31L261.83 16.31Q261.30 16.18 260.96 15.87L260.96 15.87L260.96 15.87Q260.62 15.55 260.34 15.08L260.34 15.08L260.34 15.08Q260.48 14.81 260.68 14.38L260.68 14.38L260.68 14.38Q260.88 13.94 261.16 13.31L261.16 13.31L261.16 13.31Q261.44 12.67 261.81 11.78L261.81 11.78L261.81 11.78Q262.18 10.89 262.68 9.70L262.68 9.70L262.68 9.70Q262.91 9.16 263.07 8.75L263.07 8.75L263.07 8.75Q263.24 8.34 263.37 7.99L263.37 7.99L263.37 7.99Q263.49 7.63 263.60 7.28L263.60 7.28L263.60 7.28Q263.70 6.93 263.82 6.51L263.82 6.51L263.82 6.51Q263.16 6.72 262.61 7L262.61 7L262.61 7Q262.05 7.28 261.69 7.59L261.69 7.59L261.69 7.59Q261.56 7.50 261.43 7.34L261.43 7.34L261.43 7.34Q261.30 7.17 261.18 6.96L261.18 6.96L261.18 6.96Q261.07 6.76 260.99 6.55L260.99 6.55L260.99 6.55Q260.90 6.34 260.89 6.17L260.89 6.17L260.89 6.17Q261.30 5.89 261.90 5.66L261.90 5.66L261.90 5.66Q262.50 5.42 263.19 5.24L263.19 5.24L263.19 5.24Q263.87 5.07 264.61 4.97L264.61 4.97L264.61 4.97Q265.34 4.87 266.01 4.87L266.01 4.87L266.01 4.87Q266.81 4.87 267.46 5.07L267.46 5.07L267.46 5.07Q268.10 5.28 268.55 5.64L268.55 5.64L268.55 5.64Q269.00 6.01 269.23 6.51L269.23 6.51L269.23 6.51Q269.47 7.01 269.47 7.63ZM266.98 5.95L266.98 5.95L266.98 5.95Q266.45 5.95 265.89 6.03L265.89 6.03L266.06 6.29L266.06 6.29Q265.92 6.47 265.71 6.83L265.71 6.83L265.71 6.83Q265.50 7.20 265.24 7.71L265.24 7.71L265.24 7.71Q264.99 8.22 264.69 8.85L264.69 8.85L264.69 8.85Q264.39 9.48 264.05 10.18L264.05 10.18L264.05 10.18Q265.15 10.18 266.04 9.97L266.04 9.97L266.04 9.97Q266.94 9.77 267.57 9.41L267.57 9.41L267.57 9.41Q268.21 9.06 268.57 8.58L268.57 8.58L268.57 8.58Q268.93 8.11 268.93 7.56L268.93 7.56L268.93 7.56Q268.93 6.83 268.44 6.39L268.44 6.39L268.44 6.39Q267.95 5.95 266.98 5.95ZM276.56 16.24L276.56 16.24L276.56 16.24Q275.88 16.04 275.63 15.85L275.63 15.85L275.63 15.85Q275.37 15.65 275.37 15.36L275.37 15.36L275.37 15.36Q275.37 15.13 275.49 14.73L275.49 14.73L275.49 14.73Q275.62 14.32 275.86 13.77L275.86 13.77L275.86 13.77Q276.11 13.22 276.45 12.54L276.45 12.54L276.45 12.54Q276.79 11.87 277.23 11.10L277.23 11.10L277.23 11.10Q276.86 11.09 276.58 11.08L276.58 11.08L276.58 11.08Q276.29 11.07 276.11 11.07L276.11 11.07L276.11 11.07Q276.19 10.86 276.58 10.71L276.58 10.71L276.58 10.71Q276.98 10.56 277.62 10.44L277.62 10.44L277.62 10.44Q278.17 9.53 278.79 8.71L278.79 8.71L278.79 8.71Q279.41 7.88 280.04 7.19L280.04 7.19L280.04 7.19Q280.67 6.50 281.30 5.97L281.30 5.97L281.30 5.97Q281.93 5.45 282.51 5.14L282.51 5.14L282.51 5.14Q282.52 5.04 282.53 4.97L282.53 4.97L282.53 4.97Q282.53 4.90 282.53 4.87L282.53 4.87L282.53 4.87Q282.73 4.87 283.06 4.97L283.06 4.97L283.06 4.97Q283.39 5.07 283.70 5.21L283.70 5.21L283.70 5.21Q284.02 5.35 284.26 5.49L284.26 5.49L284.26 5.49Q284.51 5.64 284.54 5.74L284.54 5.74L284.54 5.74Q284.07 6.55 283.63 8.17L283.63 8.17L283.63 8.17Q283.18 9.79 282.88 12.04L282.88 12.04L282.88 12.04Q282.81 12.60 282.76 13.31L282.76 13.31L282.76 13.31Q282.72 14.03 282.72 14.91L282.72 14.91L282.72 14.91Q282.72 15.22 282.72 15.54L282.72 15.54L282.72 15.54Q282.72 15.86 282.74 16.21L282.74 16.21L282.74 16.21Q282.72 16.23 282.69 16.23L282.69 16.23L282.69 16.23Q282.66 16.23 282.58 16.23L282.58 16.23L282.58 16.23Q282.38 16.23 282.12 16.16L282.12 16.16L282.12 16.16Q281.86 16.10 281.62 16.01L281.62 16.01L281.62 16.01Q281.37 15.92 281.20 15.81L281.20 15.81L281.20 15.81Q281.02 15.69 280.98 15.61L280.98 15.61L280.98 15.61Q280.97 15.43 280.97 15.25L280.97 15.25L280.97 15.25Q280.97 15.08 280.97 14.88L280.97 14.88L280.97 14.88Q280.97 14.01 281.03 13.12L281.03 13.12L281.03 13.12Q281.09 12.22 281.25 11.27L281.25 11.27L281.25 11.27Q281.05 11.26 280.73 11.23L280.73 11.23L280.73 11.23Q280.41 11.21 280.01 11.20L280.01 11.20L280.01 11.20Q279.61 11.19 279.15 11.16L279.15 11.16L279.15 11.16Q278.70 11.14 278.26 11.13L278.26 11.13L278.26 11.13Q277.93 11.76 277.63 12.38L277.63 12.38L277.63 12.38Q277.34 13.01 277.13 13.64L277.13 13.64L277.13 13.64Q276.89 14.31 276.75 14.98L276.75 14.98L276.75 14.98Q276.60 15.65 276.56 16.24ZM281.96 7.83L281.96 7.83L281.96 7.83Q282.02 7.63 282.09 7.29L282.09 7.29L282.09 7.29Q282.17 6.94 282.24 6.57L282.24 6.57L282.24 6.57Q281.89 6.69 281.46 7.03L281.46 7.03L281.46 7.03Q281.04 7.36 280.58 7.86L280.58 7.86L280.58 7.86Q280.13 8.36 279.66 8.98L279.66 8.98L279.66 8.98Q279.19 9.60 278.75 10.30L278.75 10.30L278.75 10.30Q279.93 10.21 281.43 10.18L281.43 10.18L281.43 10.18Q281.54 9.59 281.67 9.01L281.67 9.01L281.67 9.01Q281.81 8.43 281.96 7.83ZM292.28 12.43L292.28 12.43L292.28 12.43Q292.28 11.45 292.51 10.51L292.51 10.51L292.51 10.51Q292.74 9.56 293.16 8.71L293.16 8.71L293.16 8.71Q293.58 7.87 294.16 7.16L294.16 7.16L294.16 7.16Q294.74 6.45 295.44 5.94L295.44 5.94L295.44 5.94Q296.13 5.42 296.91 5.13L296.91 5.13L296.91 5.13Q297.70 4.84 298.52 4.84L298.52 4.84L298.52 4.84Q299.49 4.84 300.03 5.25L300.03 5.25L300.03 5.25Q300.57 5.66 300.57 6.38L300.57 6.38L300.57 6.38Q300.57 6.66 300.49 6.96L300.49 6.96L300.49 6.96Q300.41 7.25 300.27 7.54L300.27 7.54L300.27 7.54Q300.12 7.83 299.92 8.09L299.92 8.09L299.92 8.09Q299.73 8.36 299.49 8.55L299.49 8.55L299.49 8.55Q299.12 8.50 298.86 8.22L298.86 8.22L298.86 8.22Q298.59 7.95 298.52 7.59L298.52 7.59L298.52 7.59Q299.01 7.18 299.30 6.74L299.30 6.74L299.30 6.74Q299.59 6.30 299.59 5.94L299.59 5.94L299.59 5.94Q299.59 5.32 298.82 5.32L298.82 5.32L298.82 5.32Q298.49 5.32 298.15 5.45L298.15 5.45L298.15 5.45Q297.81 5.59 297.46 5.82L297.46 5.82L297.46 5.82Q297.11 6.06 296.78 6.40L296.78 6.40L296.78 6.40Q296.45 6.73 296.17 7.14L296.17 7.14L296.17 7.14Q294.22 9.94 294.22 12.87L294.22 12.87L294.22 12.87Q294.22 13.90 294.55 14.53L294.55 14.53L294.55 14.53Q294.87 15.16 295.40 15.27L295.40 15.27L295.40 15.27Q296.00 15.13 296.93 14.50L296.93 14.50L296.93 14.50Q297.85 13.87 298.94 12.87L298.94 12.87L298.94 12.87Q299.08 13.01 299.11 13.16L299.11 13.16L299.11 13.16Q298.70 13.69 298.27 14.18L298.27 14.18L298.27 14.18Q297.84 14.67 297.41 15.08L297.41 15.08L297.41 15.08Q296.98 15.48 296.57 15.79L296.57 15.79L296.57 15.79Q296.16 16.10 295.81 16.27L295.81 16.27L295.81 16.27Q294.07 16.24 293.17 15.27L293.17 15.27L293.17 15.27Q292.28 14.31 292.28 12.43ZM312.87 9.21L312.87 9.21L312.87 9.21Q313.33 9.21 313.59 9.46L313.59 9.46L313.59 9.46Q313.85 9.72 313.85 10.16L313.85 10.16L313.85 10.16Q313.85 10.28 313.83 10.39L313.83 10.39L313.83 10.39Q313.81 10.51 313.78 10.60L313.78 10.60L313.78 10.60Q313.60 10.57 313.38 10.55L313.38 10.55L313.38 10.55Q313.15 10.53 312.84 10.53L312.84 10.53L312.84 10.53Q312.24 10.53 311.63 10.63L311.63 10.63L311.63 10.63Q311.01 10.74 310.45 10.81L310.45 10.81L310.45 10.81Q310.13 11.55 309.86 12.24L309.86 12.24L309.86 12.24Q309.60 12.94 309.41 13.51L309.41 13.51L309.41 13.51Q309.22 14.08 309.11 14.50L309.11 14.50L309.11 14.50Q309.01 14.92 308.99 15.13L308.99 15.13L308.99 15.13Q310.13 14.90 311.28 14.73L311.28 14.73L311.28 14.73Q312.44 14.56 313.71 14.48L313.71 14.48L313.71 14.48Q313.87 14.71 313.97 14.99L313.97 14.99L313.97 14.99Q314.08 15.27 314.08 15.60L314.08 15.60L314.08 15.60Q314.08 15.68 314.08 15.78L314.08 15.78L314.08 15.78Q314.08 15.88 314.05 15.97L314.05 15.97L314.05 15.97Q313.66 15.96 313.22 15.95L313.22 15.95L313.22 15.95Q312.79 15.95 312.09 15.95L312.09 15.95L312.09 15.95Q311.63 15.95 311.21 15.97L311.21 15.97L311.21 15.97Q310.80 15.99 310.38 16.03L310.38 16.03L310.38 16.03Q309.96 16.07 309.49 16.14L309.49 16.14L309.49 16.14Q309.02 16.21 308.43 16.31L308.43 16.31L308.43 16.31Q307.79 16.06 307.19 15.08L307.19 15.08L307.19 15.08Q307.43 14.57 307.85 13.54L307.85 13.54L307.85 13.54Q308.28 12.52 308.94 10.79L308.94 10.79L308.94 10.79Q308.31 10.60 308.11 10.09L308.11 10.09L308.11 10.09Q308.18 10.02 308.52 9.92L308.52 9.92L308.52 9.92Q308.85 9.81 309.34 9.70L309.34 9.70L309.34 9.70Q309.55 9.16 309.70 8.75L309.70 8.75L309.70 8.75Q309.85 8.34 309.96 7.99L309.96 7.99L309.96 7.99Q310.07 7.63 310.16 7.29L310.16 7.29L310.16 7.29Q310.25 6.94 310.34 6.54L310.34 6.54L310.34 6.54Q309.85 6.51 309.57 6.27L309.57 6.27L309.57 6.27Q309.29 6.02 309.29 5.63L309.29 5.63L309.29 5.63Q309.29 5.52 309.32 5.36L309.32 5.36L309.32 5.36Q309.36 5.21 309.40 5.10L309.40 5.10L309.40 5.10Q309.68 5.14 309.94 5.15L309.94 5.15L309.94 5.15Q310.20 5.17 310.62 5.17L310.62 5.17L310.62 5.17Q311.50 5.17 312.27 5.12L312.27 5.12L312.27 5.12Q313.04 5.07 313.66 5.01L313.66 5.01L313.66 5.01Q314.29 4.96 314.73 4.91L314.73 4.91L314.73 4.91Q315.18 4.86 315.42 4.86L315.42 4.86L315.42 4.86Q315.74 4.86 315.99 5.19L315.99 5.19L315.99 5.19Q316.25 5.53 316.37 6.15L316.37 6.15L316.37 6.15Q315.94 6.10 315.67 6.09L315.67 6.09L315.67 6.09Q315.39 6.08 315.18 6.08L315.18 6.08L315.18 6.08Q314.41 6.08 313.78 6.15L313.78 6.15L313.78 6.15Q313.14 6.23 312.55 6.31L312.55 6.31L312.55 6.31Q312.47 6.44 312.36 6.64L312.36 6.64L312.36 6.64Q312.26 6.83 312.09 7.18L312.09 7.18L312.09 7.18Q311.92 7.53 311.68 8.06L311.68 8.06L311.68 8.06Q311.43 8.60 311.08 9.39L311.08 9.39L311.08 9.39Q311.61 9.31 312.08 9.26L312.08 9.26L312.08 9.26Q312.55 9.21 312.87 9.21Z"></path></g></svg>