<svg data-v-d3f97b9e="" xmlns="http://www.w3.org/2000/svg" viewBox="0 0 63.67317096300671 60"><!----><!----><!----><!----><g data-v-d3f97b9e="" id="54fab386-a10d-44dd-a9d2-d0d2bac2dd8c" transform="matrix(0.8692250804558648,0,0,0.8692250804558648,-11.624823868293348,-13.46081964899281)" stroke="none" fill="black"><path d="M82.531 32.202C76.513 21.503 71.498 15.486 49.32 15.486c-37.111 0-39.448 40.454-33.382 49.589 2.856 4.3 9.251 6.897 17.024 8.252l-5.476 7.621a1.5 1.5 0 0 0 2.436 1.75l6.372-8.868c3.929.491 8.112.701 12.308.686v8.497a1.5 1.5 0 0 0 3 0V74.47c4.183-.12 8.312-.456 12.162-.955l8.994 9.347a1.497 1.497 0 0 0 2.121.041 1.5 1.5 0 0 0 .041-2.121l-7.504-7.798c6.913-1.14 12.508-2.813 15.116-4.676 5.508-3.933 5.411-26.486-.001-36.106zM35.51 62.627c-4.735 0-8.573-2.396-8.573-5.35s3.838-5.349 8.573-5.349 8.573 2.395 8.573 5.349-3.838 5.35-8.573 5.35zm32.43 0c-4.735 0-8.573-2.396-8.573-5.35s3.838-5.349 8.573-5.349 8.573 2.395 8.573 5.349-3.838 5.35-8.573 5.35z"></path></g><!----></svg>